<svg width="48" height="48" viewBox="0 0 48 48" xmlns="http://www.w3.org/2000/svg">
  <defs>
    <linearGradient id="grad2" x1="0%" y1="0%" x2="100%" y2="100%">
      <stop offset="0%" style="stop-color:#4285F4;stop-opacity:1" />
      <stop offset="50%" style="stop-color:#1976D2;stop-opacity:1" />
      <stop offset="100%" style="stop-color:#1565C0;stop-opacity:1" />
    </linearGradient>
    <filter id="shadow" x="-20%" y="-20%" width="140%" height="140%">
      <dropShadow dx="2" dy="2" stdDeviation="2" flood-color="rgba(0,0,0,0.3)"/>
    </filter>
  </defs>
  
  <!-- Background circle with shadow -->
  <circle cx="24" cy="24" r="22" fill="url(#grad2)" filter="url(#shadow)"/>
  <circle cx="24" cy="24" r="22" fill="none" stroke="rgba(255,255,255,0.2)" stroke-width="2"/>
  
  <!-- Document icon -->
  <rect x="12" y="10" width="18" height="24" rx="2" fill="white" opacity="0.95"/>
  <rect x="12" y="34" width="18" height="3" rx="1.5" fill="white" opacity="0.95"/>
  
  <!-- Text lines representing article content -->
  <rect x="15" y="14" width="12" height="1.5" rx="0.75" fill="#1565C0"/>
  <rect x="15" y="17" width="9" height="1.5" rx="0.75" fill="#1565C0"/>
  <rect x="15" y="20" width="11" height="1.5" rx="0.75" fill="#1565C0"/>
  <rect x="15" y="23" width="8" height="1.5" rx="0.75" fill="#1565C0"/>
  <rect x="15" y="26" width="10" height="1.5" rx="0.75" fill="#1565C0"/>
  <rect x="15" y="29" width="7" height="1.5" rx="0.75" fill="#1565C0"/>
  
  <!-- AI magic sparkles -->
  <circle cx="32" cy="16" r="3" fill="#FFD700" opacity="0.9"/>
  <polygon points="32,13.5 32.5,15 34,15 32.9,16 33.4,17.5 32,16.7 30.6,17.5 31.1,16 30,15 31.5,15" fill="white"/>
  
  <circle cx="36" cy="24" r="2" fill="#FF6B35" opacity="0.8"/>
  <polygon points="36,22.7 36.3,23.7 37.3,23.7 36.5,24.3 36.8,25.3 36,24.8 35.2,25.3 35.5,24.3 34.7,23.7 35.7,23.7" fill="white"/>
  
  <circle cx="34" cy="32" r="2.5" fill="#4CAF50" opacity="0.8"/>
  <polygon points="34,30 34.4,31.2 35.6,31.2 34.6,32 35,33.2 34,32.5 33,33.2 33.4,32 32.4,31.2 33.6,31.2" fill="white"/>
  
  <!-- Subtle highlight on document -->
  <rect x="12" y="10" width="18" height="6" rx="2" fill="url(#grad2)" opacity="0.1"/>
</svg>